<svg xmlns="http://www.w3.org/2000/svg" width="794" height="132" viewBox="0 0 794 132" role="img" aria-label="Contribuicoes de 2022 a 2026">
<style>text{font-family:-apple-system,BlinkMacSystemFont,Segoe UI,Helvetica,Arial,sans-serif;font-size:9px;fill:#57606a}.t{font-size:13px;font-weight:600;fill:#9a5f08}.s{font-size:10px;fill:#57606a}</style>
<text x="0" y="14" class="t">Atividade dos últimos 5 anos</text>
<text x="212" y="14" class="s">2022 – 2026 · um quadrado por semana</text>
<text x="40" y="32">Jan</text>
<text x="96" y="32">Fev</text>
<text x="152" y="32">Mar</text>
<text x="222" y="32">Abr</text>
<text x="278" y="32">Mai</text>
<text x="348" y="32">Jun</text>
<text x="404" y="32">Jul</text>
<text x="460" y="32">Ago</text>
<text x="530" y="32">Set</text>
<text x="586" y="32">Out</text>
<text x="656" y="32">Nov</text>
<text x="712" y="32">Dez</text>
<text x="0" y="49">2022</text>
<rect x="40" y="40" width="11" height="11" rx="2" fill="#ebedf0"><title>2022 · semana 1 · 0 contribuicoes</title></rect>
<rect x="54" y="40" width="11" height="11" rx="2" fill="#fbc46a"><title>2022 · semana 2 · 4 contribuicoes</title></rect>
<rect x="68" y="40" width="11" height="11" rx="2" fill="#fde3b8"><title>2022 · semana 3 · 3 contribuicoes</title></rect>
<rect x="82" y="40" width="11" height="11" rx="2" fill="#fde3b8"><title>2022 · semana 4 · 2 contribuicoes</title></rect>
<rect x="96" y="40" width="11" height="11" rx="2" fill="#fbc46a"><title>2022 · semana 5 · 5 contribuicoes</title></rect>
<rect x="110" y="40" width="11" height="11" rx="2" fill="#f5a623"><title>2022 · semana 6 · 6 contribuicoes</title></rect>
<rect x="124" y="40" width="11" height="11" rx="2" fill="#b9740c"><title>2022 · semana 7 · 7 contribuicoes</title></rect>
<rect x="138" y="40" width="11" height="11" rx="2" fill="#b9740c"><title>2022 · semana 8 · 10 contribuicoes</title></rect>
<rect x="152" y="40" width="11" height="11" rx="2" fill="#fbc46a"><title>2022 · semana 9 · 4 contribuicoes</title></rect>
<rect x="166" y="40" width="11" height="11" rx="2" fill="#fbc46a"><title>2022 · semana 10 · 5 contribuicoes</title></rect>
<rect x="180" y="40" width="11" height="11" rx="2" fill="#b9740c"><title>2022 · semana 11 · 7 contribuicoes</title></rect>
<rect x="194" y="40" width="11" height="11" rx="2" fill="#f5a623"><title>2022 · semana 12 · 6 contribuicoes</title></rect>
<rect x="208" y="40" width="11" height="11" rx="2" fill="#fbc46a"><title>2022 · semana 13 · 5 contribuicoes</title></rect>
<rect x="222" y="40" width="11" height="11" rx="2" fill="#b9740c"><title>2022 · semana 14 · 14 contribuicoes</title></rect>
<rect x="236" y="40" width="11" height="11" rx="2" fill="#f5a623"><title>2022 · semana 15 · 6 contribuicoes</title></rect>
<rect x="250" y="40" width="11" height="11" rx="2" fill="#f5a623"><title>2022 · semana 16 · 6 contribuicoes</title></rect>
<rect x="264" y="40" width="11" height="11" rx="2" fill="#b9740c"><title>2022 · semana 17 · 7 contribuicoes</title></rect>
<rect x="278" y="40" width="11" height="11" rx="2" fill="#f5a623"><title>2022 · semana 18 · 6 contribuicoes</title></rect>
<rect x="292" y="40" width="11" height="11" rx="2" fill="#fbc46a"><title>2022 · semana 19 · 4 contribuicoes</title></rect>
<rect x="306" y="40" width="11" height="11" rx="2" fill="#b9740c"><title>2022 · semana 20 · 9 contribuicoes</title></rect>
<rect x="320" y="40" width="11" height="11" rx="2" fill="#b9740c"><title>2022 · semana 21 · 7 contribuicoes</title></rect>
<rect x="334" y="40" width="11" height="11" rx="2" fill="#b9740c"><title>2022 · semana 22 · 8 contribuicoes</title></rect>
<rect x="348" y="40" width="11" height="11" rx="2" fill="#f5a623"><title>2022 · semana 23 · 6 contribuicoes</title></rect>
<rect x="362" y="40" width="11" height="11" rx="2" fill="#fbc46a"><title>2022 · semana 24 · 5 contribuicoes</title></rect>
<rect x="376" y="40" width="11" height="11" rx="2" fill="#fbc46a"><title>2022 · semana 25 · 5 contribuicoes</title></rect>
<rect x="390" y="40" width="11" height="11" rx="2" fill="#b9740c"><title>2022 · semana 26 · 9 contribuicoes</title></rect>
<rect x="404" y="40" width="11" height="11" rx="2" fill="#b9740c"><title>2022 · semana 27 · 7 contribuicoes</title></rect>
<rect x="418" y="40" width="11" height="11" rx="2" fill="#fbc46a"><title>2022 · semana 28 · 4 contribuicoes</title></rect>
<rect x="432" y="40" width="11" height="11" rx="2" fill="#fbc46a"><title>2022 · semana 29 · 4 contribuicoes</title></rect>
<rect x="446" y="40" width="11" height="11" rx="2" fill="#fde3b8"><title>2022 · semana 30 · 3 contribuicoes</title></rect>
<rect x="460" y="40" width="11" height="11" rx="2" fill="#fde3b8"><title>2022 · semana 31 · 2 contribuicoes</title></rect>
<rect x="474" y="40" width="11" height="11" rx="2" fill="#b9740c"><title>2022 · semana 32 · 10 contribuicoes</title></rect>
<rect x="488" y="40" width="11" height="11" rx="2" fill="#ebedf0"><title>2022 · semana 33 · 0 contribuicoes</title></rect>
<rect x="502" y="40" width="11" height="11" rx="2" fill="#fbc46a"><title>2022 · semana 34 · 5 contribuicoes</title></rect>
<rect x="516" y="40" width="11" height="11" rx="2" fill="#f5a623"><title>2022 · semana 35 · 6 contribuicoes</title></rect>
<rect x="530" y="40" width="11" height="11" rx="2" fill="#fde3b8"><title>2022 · semana 36 · 3 contribuicoes</title></rect>
<rect x="544" y="40" width="11" height="11" rx="2" fill="#fbc46a"><title>2022 · semana 37 · 5 contribuicoes</title></rect>
<rect x="558" y="40" width="11" height="11" rx="2" fill="#f5a623"><title>2022 · semana 38 · 6 contribuicoes</title></rect>
<rect x="572" y="40" width="11" height="11" rx="2" fill="#fbc46a"><title>2022 · semana 39 · 5 contribuicoes</title></rect>
<rect x="586" y="40" width="11" height="11" rx="2" fill="#fde3b8"><title>2022 · semana 40 · 3 contribuicoes</title></rect>
<rect x="600" y="40" width="11" height="11" rx="2" fill="#b9740c"><title>2022 · semana 41 · 7 contribuicoes</title></rect>
<rect x="614" y="40" width="11" height="11" rx="2" fill="#fbc46a"><title>2022 · semana 42 · 4 contribuicoes</title></rect>
<rect x="628" y="40" width="11" height="11" rx="2" fill="#fbc46a"><title>2022 · semana 43 · 5 contribuicoes</title></rect>
<rect x="642" y="40" width="11" height="11" rx="2" fill="#ebedf0"><title>2022 · semana 44 · 0 contribuicoes</title></rect>
<rect x="656" y="40" width="11" height="11" rx="2" fill="#b9740c"><title>2022 · semana 45 · 7 contribuicoes</title></rect>
<rect x="670" y="40" width="11" height="11" rx="2" fill="#b9740c"><title>2022 · semana 46 · 8 contribuicoes</title></rect>
<rect x="684" y="40" width="11" height="11" rx="2" fill="#fbc46a"><title>2022 · semana 47 · 5 contribuicoes</title></rect>
<rect x="698" y="40" width="11" height="11" rx="2" fill="#f5a623"><title>2022 · semana 48 · 6 contribuicoes</title></rect>
<rect x="712" y="40" width="11" height="11" rx="2" fill="#fde3b8"><title>2022 · semana 49 · 1 contribuicoes</title></rect>
<rect x="726" y="40" width="11" height="11" rx="2" fill="#fde3b8"><title>2022 · semana 50 · 2 contribuicoes</title></rect>
<rect x="740" y="40" width="11" height="11" rx="2" fill="#ebedf0"><title>2022 · semana 51 · 0 contribuicoes</title></rect>
<rect x="754" y="40" width="11" height="11" rx="2" fill="#ebedf0"><title>2022 · semana 52 · 0 contribuicoes</title></rect>
<rect x="768" y="40" width="11" height="11" rx="2" fill="#fde3b8"><title>2022 · semana 53 · 3 contribuicoes</title></rect>
<text x="0" y="63">2023</text>
<rect x="40" y="54" width="11" height="11" rx="2" fill="#fde3b8"><title>2023 · semana 1 · 1 contribuicoes</title></rect>
<rect x="54" y="54" width="11" height="11" rx="2" fill="#fbc46a"><title>2023 · semana 2 · 5 contribuicoes</title></rect>
<rect x="68" y="54" width="11" height="11" rx="2" fill="#fde3b8"><title>2023 · semana 3 · 3 contribuicoes</title></rect>
<rect x="82" y="54" width="11" height="11" rx="2" fill="#fbc46a"><title>2023 · semana 4 · 4 contribuicoes</title></rect>
<rect x="96" y="54" width="11" height="11" rx="2" fill="#b9740c"><title>2023 · semana 5 · 10 contribuicoes</title></rect>
<rect x="110" y="54" width="11" height="11" rx="2" fill="#b9740c"><title>2023 · semana 6 · 8 contribuicoes</title></rect>
<rect x="124" y="54" width="11" height="11" rx="2" fill="#b9740c"><title>2023 · semana 7 · 8 contribuicoes</title></rect>
<rect x="138" y="54" width="11" height="11" rx="2" fill="#fbc46a"><title>2023 · semana 8 · 4 contribuicoes</title></rect>
<rect x="152" y="54" width="11" height="11" rx="2" fill="#f5a623"><title>2023 · semana 9 · 6 contribuicoes</title></rect>
<rect x="166" y="54" width="11" height="11" rx="2" fill="#b9740c"><title>2023 · semana 10 · 7 contribuicoes</title></rect>
<rect x="180" y="54" width="11" height="11" rx="2" fill="#b9740c"><title>2023 · semana 11 · 8 contribuicoes</title></rect>
<rect x="194" y="54" width="11" height="11" rx="2" fill="#f5a623"><title>2023 · semana 12 · 6 contribuicoes</title></rect>
<rect x="208" y="54" width="11" height="11" rx="2" fill="#fbc46a"><title>2023 · semana 13 · 4 contribuicoes</title></rect>
<rect x="222" y="54" width="11" height="11" rx="2" fill="#b9740c"><title>2023 · semana 14 · 9 contribuicoes</title></rect>
<rect x="236" y="54" width="11" height="11" rx="2" fill="#b9740c"><title>2023 · semana 15 · 7 contribuicoes</title></rect>
<rect x="250" y="54" width="11" height="11" rx="2" fill="#fbc46a"><title>2023 · semana 16 · 5 contribuicoes</title></rect>
<rect x="264" y="54" width="11" height="11" rx="2" fill="#fde3b8"><title>2023 · semana 17 · 3 contribuicoes</title></rect>
<rect x="278" y="54" width="11" height="11" rx="2" fill="#b9740c"><title>2023 · semana 18 · 7 contribuicoes</title></rect>
<rect x="292" y="54" width="11" height="11" rx="2" fill="#f5a623"><title>2023 · semana 19 · 6 contribuicoes</title></rect>
<rect x="306" y="54" width="11" height="11" rx="2" fill="#fbc46a"><title>2023 · semana 20 · 5 contribuicoes</title></rect>
<rect x="320" y="54" width="11" height="11" rx="2" fill="#fde3b8"><title>2023 · semana 21 · 3 contribuicoes</title></rect>
<rect x="334" y="54" width="11" height="11" rx="2" fill="#b9740c"><title>2023 · semana 22 · 7 contribuicoes</title></rect>
<rect x="348" y="54" width="11" height="11" rx="2" fill="#b9740c"><title>2023 · semana 23 · 7 contribuicoes</title></rect>
<rect x="362" y="54" width="11" height="11" rx="2" fill="#b9740c"><title>2023 · semana 24 · 7 contribuicoes</title></rect>
<rect x="376" y="54" width="11" height="11" rx="2" fill="#fbc46a"><title>2023 · semana 25 · 4 contribuicoes</title></rect>
<rect x="390" y="54" width="11" height="11" rx="2" fill="#b9740c"><title>2023 · semana 26 · 12 contribuicoes</title></rect>
<rect x="404" y="54" width="11" height="11" rx="2" fill="#fde3b8"><title>2023 · semana 27 · 3 contribuicoes</title></rect>
<rect x="418" y="54" width="11" height="11" rx="2" fill="#fbc46a"><title>2023 · semana 28 · 5 contribuicoes</title></rect>
<rect x="432" y="54" width="11" height="11" rx="2" fill="#fbc46a"><title>2023 · semana 29 · 5 contribuicoes</title></rect>
<rect x="446" y="54" width="11" height="11" rx="2" fill="#fde3b8"><title>2023 · semana 30 · 2 contribuicoes</title></rect>
<rect x="460" y="54" width="11" height="11" rx="2" fill="#fbc46a"><title>2023 · semana 31 · 5 contribuicoes</title></rect>
<rect x="474" y="54" width="11" height="11" rx="2" fill="#fbc46a"><title>2023 · semana 32 · 5 contribuicoes</title></rect>
<rect x="488" y="54" width="11" height="11" rx="2" fill="#b9740c"><title>2023 · semana 33 · 8 contribuicoes</title></rect>
<rect x="502" y="54" width="11" height="11" rx="2" fill="#f5a623"><title>2023 · semana 34 · 6 contribuicoes</title></rect>
<rect x="516" y="54" width="11" height="11" rx="2" fill="#fde3b8"><title>2023 · semana 35 · 3 contribuicoes</title></rect>
<rect x="530" y="54" width="11" height="11" rx="2" fill="#fde3b8"><title>2023 · semana 36 · 3 contribuicoes</title></rect>
<rect x="544" y="54" width="11" height="11" rx="2" fill="#fbc46a"><title>2023 · semana 37 · 4 contribuicoes</title></rect>
<rect x="558" y="54" width="11" height="11" rx="2" fill="#f5a623"><title>2023 · semana 38 · 6 contribuicoes</title></rect>
<rect x="572" y="54" width="11" height="11" rx="2" fill="#f5a623"><title>2023 · semana 39 · 6 contribuicoes</title></rect>
<rect x="586" y="54" width="11" height="11" rx="2" fill="#fbc46a"><title>2023 · semana 40 · 5 contribuicoes</title></rect>
<rect x="600" y="54" width="11" height="11" rx="2" fill="#b9740c"><title>2023 · semana 41 · 8 contribuicoes</title></rect>
<rect x="614" y="54" width="11" height="11" rx="2" fill="#f5a623"><title>2023 · semana 42 · 6 contribuicoes</title></rect>
<rect x="628" y="54" width="11" height="11" rx="2" fill="#b9740c"><title>2023 · semana 43 · 8 contribuicoes</title></rect>
<rect x="642" y="54" width="11" height="11" rx="2" fill="#fde3b8"><title>2023 · semana 44 · 3 contribuicoes</title></rect>
<rect x="656" y="54" width="11" height="11" rx="2" fill="#fbc46a"><title>2023 · semana 45 · 4 contribuicoes</title></rect>
<rect x="670" y="54" width="11" height="11" rx="2" fill="#fbc46a"><title>2023 · semana 46 · 5 contribuicoes</title></rect>
<rect x="684" y="54" width="11" height="11" rx="2" fill="#f5a623"><title>2023 · semana 47 · 6 contribuicoes</title></rect>
<rect x="698" y="54" width="11" height="11" rx="2" fill="#b9740c"><title>2023 · semana 48 · 9 contribuicoes</title></rect>
<rect x="712" y="54" width="11" height="11" rx="2" fill="#fbc46a"><title>2023 · semana 49 · 5 contribuicoes</title></rect>
<rect x="726" y="54" width="11" height="11" rx="2" fill="#fde3b8"><title>2023 · semana 50 · 1 contribuicoes</title></rect>
<rect x="740" y="54" width="11" height="11" rx="2" fill="#fde3b8"><title>2023 · semana 51 · 3 contribuicoes</title></rect>
<rect x="754" y="54" width="11" height="11" rx="2" fill="#fde3b8"><title>2023 · semana 52 · 1 contribuicoes</title></rect>
<rect x="768" y="54" width="11" height="11" rx="2" fill="#ebedf0"><title>2023 · semana 53 · 0 contribuicoes</title></rect>
<text x="0" y="77">2024</text>
<rect x="40" y="68" width="11" height="11" rx="2" fill="#fde3b8"><title>2024 · semana 1 · 2 contribuicoes</title></rect>
<rect x="54" y="68" width="11" height="11" rx="2" fill="#fde3b8"><title>2024 · semana 2 · 3 contribuicoes</title></rect>
<rect x="68" y="68" width="11" height="11" rx="2" fill="#fbc46a"><title>2024 · semana 3 · 4 contribuicoes</title></rect>
<rect x="82" y="68" width="11" height="11" rx="2" fill="#f5a623"><title>2024 · semana 4 · 6 contribuicoes</title></rect>
<rect x="96" y="68" width="11" height="11" rx="2" fill="#fbc46a"><title>2024 · semana 5 · 5 contribuicoes</title></rect>
<rect x="110" y="68" width="11" height="11" rx="2" fill="#b9740c"><title>2024 · semana 6 · 8 contribuicoes</title></rect>
<rect x="124" y="68" width="11" height="11" rx="2" fill="#b9740c"><title>2024 · semana 7 · 7 contribuicoes</title></rect>
<rect x="138" y="68" width="11" height="11" rx="2" fill="#fbc46a"><title>2024 · semana 8 · 5 contribuicoes</title></rect>
<rect x="152" y="68" width="11" height="11" rx="2" fill="#f5a623"><title>2024 · semana 9 · 6 contribuicoes</title></rect>
<rect x="166" y="68" width="11" height="11" rx="2" fill="#fde3b8"><title>2024 · semana 10 · 3 contribuicoes</title></rect>
<rect x="180" y="68" width="11" height="11" rx="2" fill="#f5a623"><title>2024 · semana 11 · 6 contribuicoes</title></rect>
<rect x="194" y="68" width="11" height="11" rx="2" fill="#fbc46a"><title>2024 · semana 12 · 5 contribuicoes</title></rect>
<rect x="208" y="68" width="11" height="11" rx="2" fill="#f5a623"><title>2024 · semana 13 · 6 contribuicoes</title></rect>
<rect x="222" y="68" width="11" height="11" rx="2" fill="#fbc46a"><title>2024 · semana 14 · 4 contribuicoes</title></rect>
<rect x="236" y="68" width="11" height="11" rx="2" fill="#b9740c"><title>2024 · semana 15 · 9 contribuicoes</title></rect>
<rect x="250" y="68" width="11" height="11" rx="2" fill="#b9740c"><title>2024 · semana 16 · 11 contribuicoes</title></rect>
<rect x="264" y="68" width="11" height="11" rx="2" fill="#f5a623"><title>2024 · semana 17 · 6 contribuicoes</title></rect>
<rect x="278" y="68" width="11" height="11" rx="2" fill="#b9740c"><title>2024 · semana 18 · 11 contribuicoes</title></rect>
<rect x="292" y="68" width="11" height="11" rx="2" fill="#fbc46a"><title>2024 · semana 19 · 5 contribuicoes</title></rect>
<rect x="306" y="68" width="11" height="11" rx="2" fill="#f5a623"><title>2024 · semana 20 · 6 contribuicoes</title></rect>
<rect x="320" y="68" width="11" height="11" rx="2" fill="#b9740c"><title>2024 · semana 21 · 7 contribuicoes</title></rect>
<rect x="334" y="68" width="11" height="11" rx="2" fill="#b9740c"><title>2024 · semana 22 · 7 contribuicoes</title></rect>
<rect x="348" y="68" width="11" height="11" rx="2" fill="#b9740c"><title>2024 · semana 23 · 8 contribuicoes</title></rect>
<rect x="362" y="68" width="11" height="11" rx="2" fill="#b9740c"><title>2024 · semana 24 · 7 contribuicoes</title></rect>
<rect x="376" y="68" width="11" height="11" rx="2" fill="#b9740c"><title>2024 · semana 25 · 8 contribuicoes</title></rect>
<rect x="390" y="68" width="11" height="11" rx="2" fill="#f5a623"><title>2024 · semana 26 · 6 contribuicoes</title></rect>
<rect x="404" y="68" width="11" height="11" rx="2" fill="#fbc46a"><title>2024 · semana 27 · 5 contribuicoes</title></rect>
<rect x="418" y="68" width="11" height="11" rx="2" fill="#fde3b8"><title>2024 · semana 28 · 1 contribuicoes</title></rect>
<rect x="432" y="68" width="11" height="11" rx="2" fill="#fbc46a"><title>2024 · semana 29 · 4 contribuicoes</title></rect>
<rect x="446" y="68" width="11" height="11" rx="2" fill="#fde3b8"><title>2024 · semana 30 · 3 contribuicoes</title></rect>
<rect x="460" y="68" width="11" height="11" rx="2" fill="#b9740c"><title>2024 · semana 31 · 7 contribuicoes</title></rect>
<rect x="474" y="68" width="11" height="11" rx="2" fill="#b9740c"><title>2024 · semana 32 · 8 contribuicoes</title></rect>
<rect x="488" y="68" width="11" height="11" rx="2" fill="#f5a623"><title>2024 · semana 33 · 6 contribuicoes</title></rect>
<rect x="502" y="68" width="11" height="11" rx="2" fill="#b9740c"><title>2024 · semana 34 · 9 contribuicoes</title></rect>
<rect x="516" y="68" width="11" height="11" rx="2" fill="#fbc46a"><title>2024 · semana 35 · 4 contribuicoes</title></rect>
<rect x="530" y="68" width="11" height="11" rx="2" fill="#b9740c"><title>2024 · semana 36 · 8 contribuicoes</title></rect>
<rect x="544" y="68" width="11" height="11" rx="2" fill="#fbc46a"><title>2024 · semana 37 · 4 contribuicoes</title></rect>
<rect x="558" y="68" width="11" height="11" rx="2" fill="#b9740c"><title>2024 · semana 38 · 8 contribuicoes</title></rect>
<rect x="572" y="68" width="11" height="11" rx="2" fill="#b9740c"><title>2024 · semana 39 · 8 contribuicoes</title></rect>
<rect x="586" y="68" width="11" height="11" rx="2" fill="#b9740c"><title>2024 · semana 40 · 7 contribuicoes</title></rect>
<rect x="600" y="68" width="11" height="11" rx="2" fill="#b9740c"><title>2024 · semana 41 · 11 contribuicoes</title></rect>
<rect x="614" y="68" width="11" height="11" rx="2" fill="#b9740c"><title>2024 · semana 42 · 7 contribuicoes</title></rect>
<rect x="628" y="68" width="11" height="11" rx="2" fill="#fbc46a"><title>2024 · semana 43 · 4 contribuicoes</title></rect>
<rect x="642" y="68" width="11" height="11" rx="2" fill="#b9740c"><title>2024 · semana 44 · 7 contribuicoes</title></rect>
<rect x="656" y="68" width="11" height="11" rx="2" fill="#b9740c"><title>2024 · semana 45 · 7 contribuicoes</title></rect>
<rect x="670" y="68" width="11" height="11" rx="2" fill="#b9740c"><title>2024 · semana 46 · 9 contribuicoes</title></rect>
<rect x="684" y="68" width="11" height="11" rx="2" fill="#b9740c"><title>2024 · semana 47 · 7 contribuicoes</title></rect>
<rect x="698" y="68" width="11" height="11" rx="2" fill="#fbc46a"><title>2024 · semana 48 · 4 contribuicoes</title></rect>
<rect x="712" y="68" width="11" height="11" rx="2" fill="#fde3b8"><title>2024 · semana 49 · 1 contribuicoes</title></rect>
<rect x="726" y="68" width="11" height="11" rx="2" fill="#fde3b8"><title>2024 · semana 50 · 1 contribuicoes</title></rect>
<rect x="740" y="68" width="11" height="11" rx="2" fill="#fde3b8"><title>2024 · semana 51 · 2 contribuicoes</title></rect>
<rect x="754" y="68" width="11" height="11" rx="2" fill="#fde3b8"><title>2024 · semana 52 · 1 contribuicoes</title></rect>
<rect x="768" y="68" width="11" height="11" rx="2" fill="#ebedf0"><title>2024 · semana 53 · 0 contribuicoes</title></rect>
<text x="0" y="91">2025</text>
<rect x="40" y="82" width="11" height="11" rx="2" fill="#fde3b8"><title>2025 · semana 1 · 1 contribuicoes</title></rect>
<rect x="54" y="82" width="11" height="11" rx="2" fill="#fde3b8"><title>2025 · semana 2 · 2 contribuicoes</title></rect>
<rect x="68" y="82" width="11" height="11" rx="2" fill="#fde3b8"><title>2025 · semana 3 · 2 contribuicoes</title></rect>
<rect x="82" y="82" width="11" height="11" rx="2" fill="#fbc46a"><title>2025 · semana 4 · 4 contribuicoes</title></rect>
<rect x="96" y="82" width="11" height="11" rx="2" fill="#fde3b8"><title>2025 · semana 5 · 3 contribuicoes</title></rect>
<rect x="110" y="82" width="11" height="11" rx="2" fill="#b9740c"><title>2025 · semana 6 · 9 contribuicoes</title></rect>
<rect x="124" y="82" width="11" height="11" rx="2" fill="#b9740c"><title>2025 · semana 7 · 8 contribuicoes</title></rect>
<rect x="138" y="82" width="11" height="11" rx="2" fill="#fbc46a"><title>2025 · semana 8 · 4 contribuicoes</title></rect>
<rect x="152" y="82" width="11" height="11" rx="2" fill="#ebedf0"><title>2025 · semana 9 · 0 contribuicoes</title></rect>
<rect x="166" y="82" width="11" height="11" rx="2" fill="#fbc46a"><title>2025 · semana 10 · 5 contribuicoes</title></rect>
<rect x="180" y="82" width="11" height="11" rx="2" fill="#f5a623"><title>2025 · semana 11 · 6 contribuicoes</title></rect>
<rect x="194" y="82" width="11" height="11" rx="2" fill="#b9740c"><title>2025 · semana 12 · 8 contribuicoes</title></rect>
<rect x="208" y="82" width="11" height="11" rx="2" fill="#fbc46a"><title>2025 · semana 13 · 5 contribuicoes</title></rect>
<rect x="222" y="82" width="11" height="11" rx="2" fill="#b9740c"><title>2025 · semana 14 · 8 contribuicoes</title></rect>
<rect x="236" y="82" width="11" height="11" rx="2" fill="#b9740c"><title>2025 · semana 15 · 7 contribuicoes</title></rect>
<rect x="250" y="82" width="11" height="11" rx="2" fill="#b9740c"><title>2025 · semana 16 · 7 contribuicoes</title></rect>
<rect x="264" y="82" width="11" height="11" rx="2" fill="#f5a623"><title>2025 · semana 17 · 6 contribuicoes</title></rect>
<rect x="278" y="82" width="11" height="11" rx="2" fill="#b9740c"><title>2025 · semana 18 · 8 contribuicoes</title></rect>
<rect x="292" y="82" width="11" height="11" rx="2" fill="#b9740c"><title>2025 · semana 19 · 9 contribuicoes</title></rect>
<rect x="306" y="82" width="11" height="11" rx="2" fill="#f5a623"><title>2025 · semana 20 · 6 contribuicoes</title></rect>
<rect x="320" y="82" width="11" height="11" rx="2" fill="#fbc46a"><title>2025 · semana 21 · 5 contribuicoes</title></rect>
<rect x="334" y="82" width="11" height="11" rx="2" fill="#b9740c"><title>2025 · semana 22 · 9 contribuicoes</title></rect>
<rect x="348" y="82" width="11" height="11" rx="2" fill="#fbc46a"><title>2025 · semana 23 · 4 contribuicoes</title></rect>
<rect x="362" y="82" width="11" height="11" rx="2" fill="#b9740c"><title>2025 · semana 24 · 7 contribuicoes</title></rect>
<rect x="376" y="82" width="11" height="11" rx="2" fill="#fbc46a"><title>2025 · semana 25 · 4 contribuicoes</title></rect>
<rect x="390" y="82" width="11" height="11" rx="2" fill="#b9740c"><title>2025 · semana 26 · 7 contribuicoes</title></rect>
<rect x="404" y="82" width="11" height="11" rx="2" fill="#fde3b8"><title>2025 · semana 27 · 3 contribuicoes</title></rect>
<rect x="418" y="82" width="11" height="11" rx="2" fill="#fde3b8"><title>2025 · semana 28 · 1 contribuicoes</title></rect>
<rect x="432" y="82" width="11" height="11" rx="2" fill="#fbc46a"><title>2025 · semana 29 · 5 contribuicoes</title></rect>
<rect x="446" y="82" width="11" height="11" rx="2" fill="#fbc46a"><title>2025 · semana 30 · 5 contribuicoes</title></rect>
<rect x="460" y="82" width="11" height="11" rx="2" fill="#fbc46a"><title>2025 · semana 31 · 4 contribuicoes</title></rect>
<rect x="474" y="82" width="11" height="11" rx="2" fill="#b9740c"><title>2025 · semana 32 · 11 contribuicoes</title></rect>
<rect x="488" y="82" width="11" height="11" rx="2" fill="#f5a623"><title>2025 · semana 33 · 6 contribuicoes</title></rect>
<rect x="502" y="82" width="11" height="11" rx="2" fill="#b9740c"><title>2025 · semana 34 · 8 contribuicoes</title></rect>
<rect x="516" y="82" width="11" height="11" rx="2" fill="#b9740c"><title>2025 · semana 35 · 8 contribuicoes</title></rect>
<rect x="530" y="82" width="11" height="11" rx="2" fill="#fbc46a"><title>2025 · semana 36 · 5 contribuicoes</title></rect>
<rect x="544" y="82" width="11" height="11" rx="2" fill="#fbc46a"><title>2025 · semana 37 · 5 contribuicoes</title></rect>
<rect x="558" y="82" width="11" height="11" rx="2" fill="#b9740c"><title>2025 · semana 38 · 8 contribuicoes</title></rect>
<rect x="572" y="82" width="11" height="11" rx="2" fill="#fbc46a"><title>2025 · semana 39 · 4 contribuicoes</title></rect>
<rect x="586" y="82" width="11" height="11" rx="2" fill="#fbc46a"><title>2025 · semana 40 · 5 contribuicoes</title></rect>
<rect x="600" y="82" width="11" height="11" rx="2" fill="#fbc46a"><title>2025 · semana 41 · 4 contribuicoes</title></rect>
<rect x="614" y="82" width="11" height="11" rx="2" fill="#b9740c"><title>2025 · semana 42 · 7 contribuicoes</title></rect>
<rect x="628" y="82" width="11" height="11" rx="2" fill="#b9740c"><title>2025 · semana 43 · 7 contribuicoes</title></rect>
<rect x="642" y="82" width="11" height="11" rx="2" fill="#f5a623"><title>2025 · semana 44 · 6 contribuicoes</title></rect>
<rect x="656" y="82" width="11" height="11" rx="2" fill="#fbc46a"><title>2025 · semana 45 · 5 contribuicoes</title></rect>
<rect x="670" y="82" width="11" height="11" rx="2" fill="#b9740c"><title>2025 · semana 46 · 9 contribuicoes</title></rect>
<rect x="684" y="82" width="11" height="11" rx="2" fill="#fbc46a"><title>2025 · semana 47 · 5 contribuicoes</title></rect>
<rect x="698" y="82" width="11" height="11" rx="2" fill="#b9740c"><title>2025 · semana 48 · 7 contribuicoes</title></rect>
<rect x="712" y="82" width="11" height="11" rx="2" fill="#fde3b8"><title>2025 · semana 49 · 1 contribuicoes</title></rect>
<rect x="726" y="82" width="11" height="11" rx="2" fill="#fde3b8"><title>2025 · semana 50 · 1 contribuicoes</title></rect>
<rect x="740" y="82" width="11" height="11" rx="2" fill="#fde3b8"><title>2025 · semana 51 · 2 contribuicoes</title></rect>
<rect x="754" y="82" width="11" height="11" rx="2" fill="#fde3b8"><title>2025 · semana 52 · 2 contribuicoes</title></rect>
<rect x="768" y="82" width="11" height="11" rx="2" fill="#fde3b8"><title>2025 · semana 53 · 1 contribuicoes</title></rect>
<text x="0" y="105">2026</text>
<rect x="40" y="96" width="11" height="11" rx="2" fill="#ebedf0"><title>2026 · semana 1 · 0 contribuicoes</title></rect>
<rect x="54" y="96" width="11" height="11" rx="2" fill="#fde3b8"><title>2026 · semana 2 · 3 contribuicoes</title></rect>
<rect x="68" y="96" width="11" height="11" rx="2" fill="#fde3b8"><title>2026 · semana 3 · 2 contribuicoes</title></rect>
<rect x="82" y="96" width="11" height="11" rx="2" fill="#fbc46a"><title>2026 · semana 4 · 4 contribuicoes</title></rect>
<rect x="96" y="96" width="11" height="11" rx="2" fill="#fbc46a"><title>2026 · semana 5 · 4 contribuicoes</title></rect>
<rect x="110" y="96" width="11" height="11" rx="2" fill="#f5a623"><title>2026 · semana 6 · 6 contribuicoes</title></rect>
<rect x="124" y="96" width="11" height="11" rx="2" fill="#b9740c"><title>2026 · semana 7 · 8 contribuicoes</title></rect>
<rect x="138" y="96" width="11" height="11" rx="2" fill="#b9740c"><title>2026 · semana 8 · 9 contribuicoes</title></rect>
<rect x="152" y="96" width="11" height="11" rx="2" fill="#fbc46a"><title>2026 · semana 9 · 5 contribuicoes</title></rect>
<rect x="166" y="96" width="11" height="11" rx="2" fill="#b9740c"><title>2026 · semana 10 · 8 contribuicoes</title></rect>
<rect x="180" y="96" width="11" height="11" rx="2" fill="#b9740c"><title>2026 · semana 11 · 8 contribuicoes</title></rect>
<rect x="194" y="96" width="11" height="11" rx="2" fill="#b9740c"><title>2026 · semana 12 · 9 contribuicoes</title></rect>
<rect x="208" y="96" width="11" height="11" rx="2" fill="#b9740c"><title>2026 · semana 13 · 7 contribuicoes</title></rect>
<rect x="222" y="96" width="11" height="11" rx="2" fill="#b9740c"><title>2026 · semana 14 · 8 contribuicoes</title></rect>
<rect x="236" y="96" width="11" height="11" rx="2" fill="#fbc46a"><title>2026 · semana 15 · 5 contribuicoes</title></rect>
<rect x="250" y="96" width="11" height="11" rx="2" fill="#fbc46a"><title>2026 · semana 16 · 5 contribuicoes</title></rect>
<rect x="264" y="96" width="11" height="11" rx="2" fill="#b9740c"><title>2026 · semana 17 · 7 contribuicoes</title></rect>
<rect x="278" y="96" width="11" height="11" rx="2" fill="#f5a623"><title>2026 · semana 18 · 6 contribuicoes</title></rect>
<rect x="292" y="96" width="11" height="11" rx="2" fill="#b9740c"><title>2026 · semana 19 · 9 contribuicoes</title></rect>
<rect x="306" y="96" width="11" height="11" rx="2" fill="#fbc46a"><title>2026 · semana 20 · 5 contribuicoes</title></rect>
<rect x="320" y="96" width="11" height="11" rx="2" fill="#fbc46a"><title>2026 · semana 21 · 4 contribuicoes</title></rect>
<rect x="334" y="96" width="11" height="11" rx="2" fill="#b9740c"><title>2026 · semana 22 · 8 contribuicoes</title></rect>
<rect x="348" y="96" width="11" height="11" rx="2" fill="#b9740c"><title>2026 · semana 23 · 8 contribuicoes</title></rect>
<rect x="362" y="96" width="11" height="11" rx="2" fill="#b9740c"><title>2026 · semana 24 · 8 contribuicoes</title></rect>
<rect x="376" y="96" width="11" height="11" rx="2" fill="#b9740c"><title>2026 · semana 25 · 7 contribuicoes</title></rect>
<rect x="390" y="96" width="11" height="11" rx="2" fill="#fbc46a"><title>2026 · semana 26 · 5 contribuicoes</title></rect>
<rect x="404" y="96" width="11" height="11" rx="2" fill="#fde3b8"><title>2026 · semana 27 · 3 contribuicoes</title></rect>
<rect x="418" y="96" width="11" height="11" rx="2" fill="#fde3b8"><title>2026 · semana 28 · 2 contribuicoes</title></rect>
<rect x="432" y="96" width="11" height="11" rx="2" fill="#fde3b8"><title>2026 · semana 29 · 1 contribuicoes</title></rect>
<rect x="446" y="96" width="11" height="11" rx="2" fill="#fbc46a"><title>2026 · semana 30 · 4 contribuicoes</title></rect>
<rect x="460" y="96" width="11" height="11" rx="2" fill="#f5a623"><title>2026 · semana 31 · 6 contribuicoes</title></rect>
<rect x="474" y="96" width="11" height="11" rx="2" fill="#f5a623"><title>2026 · semana 32 · 6 contribuicoes</title></rect>
<rect x="488" y="96" width="11" height="11" rx="2" fill="#fde3b8"><title>2026 · semana 33 · 1 contribuicoes</title></rect>
<rect x="714" y="119" width="11" height="11" rx="2" fill="#ebedf0"/>
<rect x="728" y="119" width="11" height="11" rx="2" fill="#fde3b8"/>
<rect x="742" y="119" width="11" height="11" rx="2" fill="#fbc46a"/>
<rect x="756" y="119" width="11" height="11" rx="2" fill="#f5a623"/>
<rect x="770" y="119" width="11" height="11" rx="2" fill="#b9740c"/>
</svg>